<svg xmlns="http://www.w3.org/2000/svg" viewBox="0 0 512 512" width="512" height="512">
  <defs>
    <linearGradient id="maskGrad" x1="0" y1="0" x2="512" y2="512" gradientUnits="userSpaceOnUse">
      <stop offset="0" stop-color="#5BE6B2"/>
      <stop offset="1" stop-color="#7B89FF"/>
    </linearGradient>
  </defs>
  <rect width="512" height="512" fill="#0a0e18"/>
  <g transform="translate(126 110) scale(6.5)">
    <path
      d="M8 6h24a4 4 0 0 1 4 4v16a4 4 0 0 1-4 4H17l-6 5a1 1 0 0 1-1.6-.8V30H8a4 4 0 0 1-4-4V10a4 4 0 0 1 4-4Z"
      fill="url(#maskGrad)"
    />
    <path
      d="M20 12.2l2.18 4.42 4.88.71-3.53 3.44.83 4.86L20 23.34l-4.36 2.29.83-4.86-3.53-3.44 4.88-.71L20 12.2Z"
      fill="#06231b"
    />
  </g>
</svg>
